<svg width="33" height="33" viewBox="0 0 33 33" fill="none" xmlns="http://www.w3.org/2000/svg">
<path d="M16.75 30.5C24.3439 30.5 30.5 24.3439 30.5 16.75C30.5 9.15608 24.3439 3 16.75 3C9.15608 3 3 9.15608 3 16.75C3 24.3439 9.15608 30.5 16.75 30.5Z" stroke="white" stroke-opacity="0.5" stroke-width="2" stroke-linejoin="round"/>
<path d="M23.4911 13.8889C22.3457 11.584 19.9672 10 17.2188 10C14.4703 10 12.1454 11.584 11 13.8889" stroke="white" stroke-width="1.4" stroke-linecap="round"/>
<path d="M11 10.7778V13.8889" stroke="white" stroke-width="1.4" stroke-linecap="round"/>
<path d="M13.6367 13.8888H11" stroke="white" stroke-width="1.4" stroke-linecap="round"/>
<path d="M11 20.1111C12.1454 22.416 14.5239 24 17.2724 24C20.0208 24 22.3457 22.416 23.4911 20.1111" stroke="white" stroke-width="1.4" stroke-linecap="round"/>
<path d="M23.4912 23.2223V20.1111" stroke="white" stroke-width="1.4" stroke-linecap="round"/>
<path d="M20.8545 20.1111H23.4912" stroke="white" stroke-width="1.4" stroke-linecap="round"/>
</svg>
